<svg width="49" height="48" viewBox="0 0 49 48" fill="none" xmlns="http://www.w3.org/2000/svg">
<ellipse cx="24.3668" cy="24" rx="19.9435" ry="20" fill="#181717"/>
<path d="M7.229 34.2351C9.65676 38.3138 13.4917 41.4526 18.0621 42.9785C19.0599 43.1615 19.4235 42.5439 19.4235 42.0135C19.4235 41.7939 19.4198 41.4059 19.4149 40.8867C19.4092 40.2853 19.4018 39.508 19.3966 38.6125C13.8492 39.8207 12.6787 35.931 12.6787 35.931C11.7715 33.6216 10.464 33.0064 10.464 33.0064C8.65319 31.7652 10.6011 31.7897 10.6011 31.7897C12.6028 31.9321 13.6557 33.8512 13.6557 33.8512C15.4347 36.9071 18.3241 36.0243 19.4602 35.5136C19.6414 34.2207 20.1556 33.3392 20.7262 32.8395C16.2978 32.3348 11.6417 30.6184 11.6417 22.9546C11.6417 20.7716 12.4192 18.9864 13.6949 17.5879C13.4892 17.0821 12.8048 15.0489 13.8896 12.2949C13.8896 12.2949 15.5645 11.7572 19.3745 14.3453C20.9649 13.9021 22.6716 13.6799 24.3673 13.6725C26.0605 13.6799 27.7672 13.9021 29.3601 14.3453C33.1677 11.7572 34.8389 12.2949 34.8389 12.2949C35.9273 15.0489 35.2429 17.0821 35.0372 17.5879C36.3154 18.9864 37.0879 20.7716 37.0879 22.9546C37.0879 30.638 32.4245 32.3287 27.9815 32.8235C28.6977 33.4411 29.3356 34.6615 29.3356 36.5277C29.3356 38.3153 29.3246 39.8722 29.3174 40.9036C29.3138 41.4144 29.3111 41.7963 29.3111 42.0135C29.3111 42.5488 29.6698 43.1713 30.6823 42.9761C34.3231 41.7573 37.4968 39.5155 39.8633 36.5904C36.2068 41.1109 30.6232 44 24.3667 44C17.0819 44 10.7094 40.0832 7.229 34.2351Z" fill="white"/>
</svg>
