<svg width="49" height="48" viewBox="0 0 49 48" fill="none" xmlns="http://www.w3.org/2000/svg">
<ellipse cx="24.3668" cy="24" rx="19.9435" ry="20" fill="#181717"/>
<path d="M7.229 34.235C9.65676 38.3138 13.4917 41.4526 18.0621 42.9784C19.0599 43.1614 19.4235 42.5438 19.4235 42.0134C19.4235 41.7938 19.4198 41.4058 19.4149 40.8866C19.4092 40.2852 19.4018 39.5079 19.3966 38.6124C13.8492 39.8206 12.6787 35.931 12.6787 35.931C11.7715 33.6215 10.464 33.0064 10.464 33.0064C8.65319 31.7651 10.6011 31.7896 10.6011 31.7896C12.6028 31.9321 13.6557 33.8511 13.6557 33.8511C15.4347 36.9071 18.3241 36.0243 19.4602 35.5135C19.6414 34.2207 20.1556 33.3391 20.7262 32.8394C16.2978 32.3348 11.6417 30.6183 11.6417 22.9545C11.6417 20.7715 12.4192 18.9863 13.6949 17.5879C13.4892 17.082 12.8048 15.0488 13.8896 12.2949C13.8896 12.2949 15.5645 11.7571 19.3745 14.3453C20.9649 13.9021 22.6716 13.6798 24.3673 13.6725C26.0605 13.6798 27.7672 13.9021 29.3601 14.3453C33.1677 11.7571 34.8389 12.2949 34.8389 12.2949C35.9273 15.0488 35.2429 17.082 35.0372 17.5879C36.3154 18.9863 37.0879 20.7715 37.0879 22.9545C37.0879 30.638 32.4245 32.3286 27.9815 32.8234C28.6977 33.441 29.3356 34.6614 29.3356 36.5277C29.3356 38.3152 29.3246 39.8722 29.3174 40.9035C29.3138 41.4143 29.3111 41.7962 29.3111 42.0134C29.3111 42.5487 29.6698 43.1712 30.6823 42.976C34.3231 41.7572 37.4968 39.5154 39.8633 36.5903C36.2068 41.1108 30.6232 44 24.3667 44C17.0819 44 10.7094 40.0832 7.229 34.235Z" fill="white"/>
</svg>
