<svg width="48" height="48" viewBox="0 0 48 48" fill="none" xmlns="http://www.w3.org/2000/svg">
<rect width="48" height="48" rx="24" fill="white"/>
<path fill-rule="evenodd" clip-rule="evenodd" d="M38.808 24.3545C38.808 23.2483 38.7088 22.1847 38.5244 21.1636H23.832V27.1979H32.2277C31.866 29.1479 30.7669 30.8001 29.1148 31.9063V35.8205H34.1564C37.1062 33.1047 38.808 29.1054 38.808 24.3545Z" fill="#4285F4"/>
<path fill-rule="evenodd" clip-rule="evenodd" d="M23.8318 39.5999C28.0438 39.5999 31.5751 38.203 34.1562 35.8204L29.1146 31.9062C27.7177 32.8422 25.9307 33.3953 23.8318 33.3953C19.7687 33.3953 16.3297 30.6511 15.1029 26.9639H9.89111V31.0057C12.458 36.104 17.7337 39.5999 23.8318 39.5999Z" fill="#34A853"/>
<path fill-rule="evenodd" clip-rule="evenodd" d="M15.103 26.964C14.791 26.028 14.6137 25.0281 14.6137 24C14.6137 22.9718 14.791 21.972 15.103 21.036V16.9941H9.89121C8.83466 19.1001 8.23193 21.4827 8.23193 24C8.23193 26.5172 8.83466 28.8998 9.89121 31.0058L15.103 26.964Z" fill="#FBBC05"/>
<path fill-rule="evenodd" clip-rule="evenodd" d="M23.8318 14.6044C26.1222 14.6044 28.1786 15.3915 29.7953 16.9374L34.2697 12.463C31.568 9.94572 28.0367 8.3999 23.8318 8.3999C17.7337 8.3999 12.458 11.8957 9.89111 16.9941L15.1029 21.0359C16.3297 17.3486 19.7687 14.6044 23.8318 14.6044Z" fill="#EA4335"/>
</svg>
