<svg width="48" height="48" viewBox="0 0 48 48" fill="none" xmlns="http://www.w3.org/2000/svg">
<rect width="48" height="48" rx="24" fill="white"/>
<path fill-rule="evenodd" clip-rule="evenodd" d="M38.808 24.3546C38.808 23.2484 38.7088 22.1848 38.5244 21.1637H23.832V27.1981H32.2277C31.866 29.1481 30.7669 30.8002 29.1148 31.9064V35.8206H34.1564C37.1062 33.1048 38.808 29.1055 38.808 24.3546Z" fill="#4285F4"/>
<path fill-rule="evenodd" clip-rule="evenodd" d="M23.8318 39.6C28.0438 39.6 31.5751 38.2031 34.1562 35.8205L29.1146 31.9064C27.7177 32.8424 25.9307 33.3954 23.8318 33.3954C19.7687 33.3954 16.3297 30.6513 15.1029 26.964H9.89111V31.0058C12.458 36.1042 17.7337 39.6 23.8318 39.6Z" fill="#34A853"/>
<path fill-rule="evenodd" clip-rule="evenodd" d="M15.103 26.964C14.791 26.028 14.6137 25.0282 14.6137 24C14.6137 22.9718 14.791 21.972 15.103 21.036V16.9942H9.89121C8.83466 19.1002 8.23193 21.4827 8.23193 24C8.23193 26.5173 8.83466 28.8998 9.89121 31.0058L15.103 26.964Z" fill="#FBBC05"/>
<path fill-rule="evenodd" clip-rule="evenodd" d="M23.8318 14.6046C26.1222 14.6046 28.1786 15.3917 29.7953 16.9375L34.2697 12.4631C31.568 9.94584 28.0367 8.40002 23.8318 8.40002C17.7337 8.40002 12.458 11.8958 9.89111 16.9942L15.1029 21.036C16.3297 17.3488 19.7687 14.6046 23.8318 14.6046Z" fill="#EA4335"/>
</svg>
