<svg width="48" height="48" viewBox="0 0 48 48" fill="none" xmlns="http://www.w3.org/2000/svg">
<path d="M33.8939 3H13.9707C8.46653 3 3.98877 7.6899 3.98877 13.4548V32.5452C3.98877 38.3101 8.46653 43 13.9707 43H33.8939C39.398 43 43.8758 38.3101 43.8758 32.5452V13.4548C43.8758 7.6899 39.398 3 33.8939 3ZM7.51007 13.4548C7.51007 9.72416 10.4088 6.68813 13.9707 6.68813H33.8939C37.4558 6.68813 40.3545 9.72416 40.3545 13.4548V32.5452C40.3545 36.2758 37.4558 39.3119 33.8939 39.3119H13.9707C10.4088 39.3119 7.51007 36.2758 7.51007 32.5452V13.4548Z" fill="#A434A5"/>
<path d="M23.715 32.4632C28.8334 32.4632 32.9999 28.1017 32.9999 22.7384C32.9999 17.3752 28.8357 13.0137 23.715 13.0137C18.5944 13.0137 14.4302 17.3752 14.4302 22.7384C14.4302 28.1017 18.5944 32.4632 23.715 32.4632ZM23.715 16.7042C26.8935 16.7042 29.4786 19.4118 29.4786 22.7408C29.4786 26.0698 26.8935 28.7774 23.715 28.7774C20.5366 28.7774 17.9515 26.0698 17.9515 22.7408C17.9515 19.4118 20.5366 16.7042 23.715 16.7042Z" fill="#A434A5"/>
<path d="M34.0769 14.8439C35.4552 14.8439 36.5786 13.6697 36.5786 12.2237C36.5786 10.7778 35.4574 9.60352 34.0769 9.60352C32.6963 9.60352 31.5752 10.7778 31.5752 12.2237C31.5752 13.6697 32.6963 14.8439 34.0769 14.8439Z" fill="#A434A5"/>
</svg>
