<svg width="48" height="48" viewBox="0 0 48 48" fill="none" xmlns="http://www.w3.org/2000/svg">
<path d="M33.8939 3H13.9707C8.46653 3 3.98877 7.6899 3.98877 13.4548V32.5452C3.98877 38.3101 8.46653 43 13.9707 43H33.8939C39.398 43 43.8758 38.3101 43.8758 32.5452V13.4548C43.8758 7.6899 39.398 3 33.8939 3ZM7.51007 13.4548C7.51007 9.72416 10.4088 6.68813 13.9707 6.68813H33.8939C37.4558 6.68813 40.3545 9.72416 40.3545 13.4548V32.5452C40.3545 36.2758 37.4558 39.3119 33.8939 39.3119H13.9707C10.4088 39.3119 7.51007 36.2758 7.51007 32.5452V13.4548Z" fill="#A434A5"/>
<path d="M23.715 32.463C28.8334 32.463 32.9999 28.1016 32.9999 22.7383C32.9999 17.375 28.8357 13.0135 23.715 13.0135C18.5944 13.0135 14.4302 17.375 14.4302 22.7383C14.4302 28.1016 18.5944 32.463 23.715 32.463ZM23.715 16.704C26.8935 16.704 29.4786 19.4117 29.4786 22.7407C29.4786 26.0697 26.8935 28.7773 23.715 28.7773C20.5366 28.7773 17.9515 26.0697 17.9515 22.7407C17.9515 19.4117 20.5366 16.704 23.715 16.704Z" fill="#A434A5"/>
<path d="M34.0769 14.844C35.4552 14.844 36.5786 13.6698 36.5786 12.2238C36.5786 10.7779 35.4574 9.60364 34.0769 9.60364C32.6963 9.60364 31.5752 10.7779 31.5752 12.2238C31.5752 13.6698 32.6963 14.844 34.0769 14.844Z" fill="#A434A5"/>
</svg>
