<svg width="116" height="110" viewBox="0 0 116 110" fill="none" xmlns="http://www.w3.org/2000/svg">
<path d="M57.3164 1.06125C57.4667 0.601836 58.1166 0.601838 58.2669 1.06125L71.2167 40.6528C71.4184 41.2694 71.9936 41.6864 72.6424 41.6864H114.535C115.02 41.6864 115.221 42.3079 114.827 42.5919L80.9472 67.0442C80.4179 67.4262 80.1964 68.1065 80.3993 68.7268L93.3431 108.3C93.4936 108.76 92.9677 109.144 92.5752 108.861L58.6695 84.3898C58.1454 84.0116 57.4379 84.0116 56.9138 84.3898L23.0081 108.861C22.6156 109.144 22.0898 108.76 22.2402 108.3L35.184 68.7268C35.3869 68.1065 35.1654 67.4262 34.6362 67.0442L0.756037 42.5919C0.362632 42.3079 0.563485 41.6864 1.04865 41.6864H42.9409C43.5897 41.6864 44.1649 41.2694 44.3666 40.6528L57.3164 1.06125Z" fill="white" stroke="#444444"/>
</svg>
