<svg width="116" height="110" viewBox="0 0 116 110" fill="none" xmlns="http://www.w3.org/2000/svg">
<path d="M57.4414 1.06125C57.5917 0.601835 58.2416 0.601838 58.3919 1.06125L71.3417 40.6528C71.5434 41.2694 72.1186 41.6864 72.7674 41.6864H114.66C115.145 41.6864 115.346 42.3079 114.952 42.5919L81.0722 67.0442C80.5429 67.4262 80.3214 68.1065 80.5243 68.7268L93.4681 108.3C93.6186 108.76 93.0928 109.144 92.7003 108.861L58.7945 84.3898C58.2704 84.0116 57.5629 84.0116 57.0388 84.3898L23.1331 108.861C22.7406 109.144 22.2148 108.76 22.3652 108.3L35.309 68.7268C35.5119 68.1065 35.2904 67.4262 34.7612 67.0442L0.881037 42.5919C0.487632 42.3079 0.688486 41.6864 1.17365 41.6864H43.0659C43.7147 41.6864 44.2899 41.2694 44.4916 40.6528L57.4414 1.06125Z" fill="white" stroke="#444444"/>
</svg>
