<svg width="116" height="110" viewBox="0 0 116 110" fill="none" xmlns="http://www.w3.org/2000/svg">
<path d="M57.7329 1.06125C57.8832 0.601836 58.5331 0.601838 58.6834 1.06125L71.6332 40.6528C71.8349 41.2694 72.4101 41.6864 73.0589 41.6864H114.951C115.436 41.6864 115.637 42.3079 115.244 42.5919L81.3637 67.0442C80.8344 67.4262 80.613 68.1065 80.8158 68.7268L93.7596 108.3C93.9101 108.76 93.3843 109.144 92.9918 108.861L59.086 84.3898C58.5619 84.0116 57.8544 84.0116 57.3303 84.3898L23.4246 108.861C23.0321 109.144 22.5063 108.76 22.6567 108.3L35.6005 68.7268C35.8034 68.1065 35.5819 67.4262 35.0527 67.0442L1.17254 42.5919C0.779136 42.3079 0.979989 41.6864 1.46516 41.6864H43.3574C44.0062 41.6864 44.5814 41.2694 44.7831 40.6528L57.7329 1.06125Z" fill="white" stroke="#444444"/>
</svg>
