<svg width="116" height="110" viewBox="0 0 116 110" fill="none" xmlns="http://www.w3.org/2000/svg">
<path d="M57.6079 1.06125C57.7582 0.601836 58.4081 0.601838 58.5584 1.06125L71.5082 40.6528C71.7099 41.2694 72.2851 41.6864 72.9339 41.6864H114.826C115.311 41.6864 115.512 42.3079 115.119 42.5919L81.2387 67.0442C80.7094 67.4262 80.4879 68.1065 80.6908 68.7268L93.6346 108.3C93.7851 108.76 93.2592 109.144 92.8667 108.861L58.961 84.3898C58.4369 84.0116 57.7294 84.0116 57.2053 84.3898L23.2996 108.861C22.9071 109.144 22.3813 108.76 22.5317 108.3L35.4755 68.7268C35.6784 68.1065 35.4569 67.4262 34.9277 67.0442L1.04754 42.5919C0.654136 42.3079 0.854989 41.6864 1.34016 41.6864H43.2324C43.8812 41.6864 44.4564 41.2694 44.6581 40.6528L57.6079 1.06125Z" fill="white" stroke="#444444"/>
</svg>
