<svg width="117" height="110" viewBox="0 0 117 110" fill="none" xmlns="http://www.w3.org/2000/svg">
<path d="M58.0249 1.06125C58.1752 0.601836 58.8251 0.601838 58.9754 1.06125L71.9252 40.6528C72.1269 41.2694 72.7021 41.6864 73.3509 41.6864H115.243C115.728 41.6864 115.929 42.3079 115.536 42.5919L81.6557 67.0442C81.1264 67.4262 80.9049 68.1065 81.1078 68.7268L94.0516 108.3C94.202 108.76 93.6762 109.144 93.2837 108.861L59.378 84.3898C58.8539 84.0116 58.1464 84.0116 57.6223 84.3898L23.7166 108.861C23.3241 109.144 22.7982 108.76 22.9487 108.3L35.8925 68.7268C36.0954 68.1065 35.8739 67.4262 35.3447 67.0442L1.46453 42.5919C1.07113 42.3079 1.27198 41.6864 1.75715 41.6864H43.6494C44.2982 41.6864 44.8734 41.2694 45.0751 40.6528L58.0249 1.06125Z" fill="white" stroke="#444444"/>
</svg>
